<svg width="540" height="540" viewBox="0 0 590 590" fill="none" xmlns="http://www.w3.org/2000/svg">
<path d="M590 451.232H0V451.527H590V451.232Z" fill="#EBEBEB"/>
<path d="M372.491 459.268H342.448V459.563H372.491V459.268Z" fill="#EBEBEB"/>
<path d="M537.419 465.652H466.23V465.947H537.419V465.652Z" fill="#EBEBEB"/>
<path d="M336.052 459.409H262.503V459.704H336.052V459.409Z" fill="#EBEBEB"/>
<path d="M214.807 468.236H199.42V468.531H214.807V468.236Z" fill="#EBEBEB"/>
<path d="M299.826 468.236H229.758V468.531H299.826V468.236Z" fill="#EBEBEB"/>
<path d="M107.274 463.256H61.9028V463.551H107.274V463.256Z" fill="#EBEBEB"/>
<path d="M279.66 398.604H51.8138C50.0289 398.601 48.3181 397.89 47.0571 396.626C45.7961 395.363 45.0878 393.651 45.0878 391.866V71.5787C45.1033 69.804 45.8185 68.1071 47.0778 66.8566C48.3372 65.6061 50.039 64.9029 51.8138 64.8999H279.66C281.447 64.8999 283.161 65.6098 284.424 66.8734C285.688 68.1369 286.398 69.8507 286.398 71.6377V391.866C286.398 393.653 285.688 395.367 284.424 396.63C283.161 397.894 281.447 398.604 279.66 398.604ZM51.8138 65.1359C50.1071 65.139 48.4714 65.8192 47.2657 67.0271C46.06 68.235 45.3828 69.872 45.3828 71.5787V391.866C45.3828 393.573 46.06 395.21 47.2657 396.418C48.4714 397.626 50.1071 398.306 51.8138 398.309H279.66C281.368 398.306 283.005 397.626 284.212 396.418C285.42 395.211 286.1 393.574 286.103 391.866V71.5787C286.1 69.8709 285.42 68.234 284.212 67.0264C283.005 65.8188 281.368 65.139 279.66 65.1359H51.8138Z" fill="#EBEBEB"/>
<path d="M534.906 398.604H307.048C305.262 398.601 303.55 397.89 302.287 396.627C301.024 395.364 300.313 393.652 300.31 391.866V71.5787C300.329 69.8029 301.046 68.1061 302.308 66.8559C303.569 65.6057 305.272 64.9029 307.048 64.8999H534.906C536.678 64.906 538.377 65.6106 539.634 66.8607C540.891 68.1109 541.604 69.8061 541.62 71.5787V391.866C541.62 393.649 540.913 395.359 539.655 396.622C538.396 397.885 536.689 398.598 534.906 398.604ZM307.048 65.1359C305.34 65.139 303.703 65.8188 302.495 67.0264C301.288 68.234 300.608 69.8709 300.605 71.5787V391.866C300.608 393.574 301.288 395.211 302.495 396.418C303.703 397.626 305.34 398.306 307.048 398.309H534.906C536.614 398.306 538.251 397.626 539.458 396.418C540.666 395.211 541.345 393.574 541.349 391.866V71.5787C541.345 69.8709 540.666 68.234 539.458 67.0264C538.251 65.8188 536.614 65.139 534.906 65.1359H307.048Z" fill="#EBEBEB"/>
<path d="M142.332 302.752C142.332 302.752 141.812 318.092 121.54 318.092C101.268 318.092 100.748 302.752 100.748 302.752H142.332Z" fill="#F0F0F0"/>
<path d="M191.479 302.752C191.479 302.752 190.948 318.092 170.687 318.092C150.426 318.092 149.895 302.752 149.895 302.752H191.479Z" fill="#F0F0F0"/>
<path d="M130.709 328.217H84.1812V440.777H130.709V328.217Z" fill="#F0F0F0"/>
<path d="M243.576 440.777H93.1138V451.232H243.576V440.777Z" fill="#F0F0F0"/>
<path d="M130.709 440.789H252.508V328.229H130.709V440.789Z" fill="#F5F5F5"/>
<path d="M149.01 376.55H234.218V341.917H149.01V376.55Z" fill="#F0F0F0"/>
<path d="M149.01 421.048H234.218V386.415H149.01V421.048Z" fill="#F0F0F0"/>
<path d="M258.703 318.128H130.709V328.217H258.703V318.128Z" fill="#F0F0F0"/>
<path d="M77.6794 328.229H130.709V318.14H77.6794V328.229Z" fill="#E6E6E6"/>
<path d="M462.678 89.6328H225.557V259.86H462.678V89.6328Z" fill="#FAFAFA"/>
<path d="M239.044 259.86L299.366 89.6328H344.631L284.309 259.86H239.044Z" fill="white"/>
<path d="M360.761 259.86L421.071 89.6328H437.579L377.27 259.86H360.761Z" fill="white"/>
<path d="M473.982 83.7798H214.253C213.973 83.7798 213.705 83.89 213.506 84.0867C213.307 84.2833 213.194 84.5504 213.191 84.83C213.191 84.9694 213.218 85.1075 213.271 85.2364C213.325 85.3652 213.403 85.4823 213.502 85.5809C213.6 85.6795 213.717 85.7578 213.846 85.8111C213.975 85.8645 214.113 85.892 214.253 85.892H473.982C474.122 85.892 474.26 85.8645 474.389 85.8111C474.518 85.7578 474.635 85.6795 474.733 85.5809C474.832 85.4823 474.91 85.3652 474.964 85.2364C475.017 85.1075 475.044 84.9694 475.044 84.83C475.041 84.5504 474.928 84.2833 474.729 84.0867C474.53 83.89 474.262 83.7798 473.982 83.7798Z" fill="#E0E0E0"/>
<path d="M342.719 260.225H345.528V89.2669H342.719V260.225Z" fill="#F0F0F0"/>
<path d="M345.516 260.225H346.92V89.2669H345.516V260.225Z" fill="#E0E0E0"/>
<path d="M223.917 173.354V176.162L464.318 176.162V173.354L223.917 173.354Z" fill="#F0F0F0"/>
<path d="M464.318 258.691V87.9924H223.917V258.691V261.5H464.318V258.691ZM226.725 258.691V90.8598H461.545V258.691H226.725Z" fill="#F0F0F0"/>
<path d="M464.318 261.5H465.722V87.9926H464.318V261.5Z" fill="#E0E0E0"/>
<path opacity="0.5" d="M429.461 81.2075V281.111H480.213L470.903 81.2075H429.461Z" fill="#EBEBEB"/>
<path opacity="0.5" d="M260.178 81.2075V281.111H209.426L218.737 81.2075H260.178Z" fill="#EBEBEB"/>
<path d="M541.679 307.591H292.51V348.666H541.679V307.591Z" fill="#EBEBEB"/>
<path d="M538.67 310.033H447.008V346.224H538.67V310.033Z" fill="#F5F5F5"/>
<path d="M443.751 310.033H352.088V346.224H443.751V310.033Z" fill="#F5F5F5"/>
<path d="M343.073 451.232H337.574L349.339 348.666H354.838L343.073 451.232Z" fill="#F5F5F5"/>
<path d="M294.611 451.232H289.1L300.865 348.666H306.375L294.611 451.232Z" fill="#F5F5F5"/>
<path d="M491.104 451.232H496.615L484.85 348.666H479.34L491.104 451.232Z" fill="#F5F5F5"/>
<path d="M539.567 451.232H545.077L533.313 348.666H527.802L539.567 451.232Z" fill="#F5F5F5"/>
<path d="M412.729 262.349H393.459L385.435 307.591H404.705L412.729 262.349Z" fill="#E0E0E0"/>
<path d="M455.586 223.02H347.817L351.097 288.581H458.867L455.586 223.02Z" fill="#E6E6E6"/>
<path d="M453.108 224.578H350.448L353.575 287.023H456.235L453.108 224.578Z" fill="#FAFAFA"/>
<path d="M482.785 302.115H484.874C485.343 302.115 485.723 301.735 485.723 301.266V301.218C485.723 300.749 485.343 300.369 484.874 300.369H482.785C482.316 300.369 481.936 300.749 481.936 301.218V301.266C481.936 301.735 482.316 302.115 482.785 302.115Z" fill="#E0E0E0"/>
<path d="M523.79 226.253L500.426 249.617C497.328 246.519 495.587 242.317 495.587 237.935C495.587 233.554 497.328 229.351 500.426 226.253C503.524 223.155 507.727 221.414 512.108 221.414C516.49 221.414 520.692 223.155 523.79 226.253Z" fill="#E6E6E6"/>
<path d="M491.34 228.92L500.45 238.029L512.25 226.229L503.14 217.132C502.366 216.355 501.447 215.739 500.434 215.319C499.422 214.899 498.336 214.682 497.24 214.682C496.144 214.682 495.059 214.899 494.046 215.319C493.034 215.739 492.114 216.355 491.34 217.132C490.566 217.905 489.951 218.824 489.532 219.836C489.113 220.847 488.897 221.931 488.897 223.026C488.897 224.121 489.113 225.205 489.532 226.216C489.951 227.227 490.566 228.146 491.34 228.92Z" fill="#E6E6E6"/>
<path d="M451.072 254.472L452.465 255.865L491.348 216.983L489.954 215.589L451.072 254.472Z" fill="#E6E6E6"/>
<path d="M478.797 303.159L480.492 302.154L452.443 254.858L450.748 255.863L478.797 303.159Z" fill="#E6E6E6"/>
<path d="M491.34 220.577C493.217 220.577 494.739 219.056 494.739 217.179C494.739 215.302 493.217 213.781 491.34 213.781C489.463 213.781 487.942 215.302 487.942 217.179C487.942 219.056 489.463 220.577 491.34 220.577Z" fill="#E6E6E6"/>
<path d="M451.728 257.381C452.927 257.381 453.899 256.409 453.899 255.21C453.899 254.011 452.927 253.039 451.728 253.039C450.528 253.039 449.556 254.011 449.556 255.21C449.556 256.409 450.528 257.381 451.728 257.381Z" fill="#E6E6E6"/>
<path d="M471.115 301.23H487.128L488.39 307.59H469.864L471.115 301.23Z" fill="#E6E6E6"/>
<path d="M295 504.521C421.357 504.521 523.79 498.54 523.79 491.163C523.79 483.786 421.357 477.806 295 477.806C168.643 477.806 66.2098 483.786 66.2098 491.163C66.2098 498.54 168.643 504.521 295 504.521Z" fill="#F5F5F5"/>
<path d="M405.106 297.112H123.617C119.839 297.083 116.22 295.593 113.518 292.952C110.816 290.312 109.242 286.728 109.126 282.952L105.433 123.511C105.386 121.666 105.709 119.831 106.383 118.113C107.057 116.395 108.068 114.83 109.358 113.51C110.647 112.19 112.188 111.142 113.889 110.427C115.59 109.713 117.417 109.347 119.263 109.351H400.752C404.529 109.379 408.149 110.87 410.85 113.51C413.552 116.151 415.126 119.735 415.242 123.511L418.9 282.952C418.947 284.794 418.625 286.626 417.954 288.342C417.282 290.057 416.273 291.62 414.988 292.94C413.702 294.26 412.166 295.308 410.469 296.025C408.771 296.742 406.948 297.111 405.106 297.112Z" fill="#407BFF"/>
<path d="M405.106 297.702H123.617C119.689 297.673 115.926 296.123 113.118 293.376C110.31 290.63 108.676 286.902 108.56 282.976L104.843 123.522C104.792 121.599 105.128 119.685 105.831 117.893C106.533 116.102 107.588 114.47 108.933 113.094C110.277 111.717 111.884 110.624 113.658 109.88C115.433 109.136 117.338 108.755 119.263 108.761H400.752C404.685 108.783 408.456 110.333 411.27 113.082C414.083 115.832 415.719 119.567 415.832 123.499L419.525 282.94C419.576 284.864 419.24 286.778 418.538 288.569C417.835 290.361 416.78 291.993 415.436 293.369C414.091 294.746 412.484 295.838 410.71 296.583C408.936 297.327 407.03 297.708 405.106 297.702ZM119.263 109.941C117.495 109.935 115.745 110.285 114.116 110.968C112.486 111.652 111.01 112.655 109.775 113.92C108.541 115.184 107.572 116.683 106.928 118.329C106.283 119.974 105.976 121.732 106.023 123.499L109.74 282.94C109.844 286.565 111.352 290.007 113.945 292.541C116.538 295.075 120.015 296.502 123.64 296.522H405.106C406.871 296.526 408.62 296.176 410.248 295.492C411.876 294.809 413.351 293.806 414.585 292.544C415.819 291.281 416.788 289.784 417.434 288.14C418.08 286.497 418.39 284.741 418.345 282.976L414.652 123.522C414.548 119.898 413.04 116.456 410.447 113.922C407.854 111.388 404.377 109.96 400.752 109.941H119.263Z" fill="#407BFF"/>
<path d="M407.466 297.112H125.977C122.199 297.083 118.58 295.593 115.878 292.952C113.176 290.312 111.602 286.728 111.486 282.952L107.793 123.511C107.746 121.666 108.069 119.831 108.743 118.113C109.417 116.395 110.428 114.83 111.718 113.51C113.007 112.19 114.548 111.142 116.249 110.427C117.95 109.713 119.777 109.347 121.623 109.351H403.112C406.889 109.379 410.509 110.87 413.21 113.51C415.912 116.151 417.486 119.735 417.602 123.511L421.26 282.952C421.307 284.794 420.985 286.626 420.314 288.342C419.642 290.057 418.633 291.62 417.348 292.94C416.062 294.26 414.526 295.308 412.829 296.025C411.131 296.742 409.308 297.111 407.466 297.112Z" fill="#F5F5F5"/>
<path d="M407.466 297.702H125.977C122.049 297.673 118.286 296.123 115.478 293.376C112.67 290.63 111.036 286.902 110.92 282.976L107.203 123.522C107.152 121.599 107.488 119.685 108.191 117.893C108.893 116.102 109.948 114.47 111.293 113.094C112.637 111.717 114.244 110.624 116.018 109.88C117.793 109.136 119.698 108.755 121.623 108.761H403.112C407.045 108.783 410.816 110.333 413.63 113.082C416.443 115.832 418.079 119.567 418.192 123.499L421.885 282.94C421.936 284.864 421.6 286.778 420.898 288.569C420.195 290.361 419.14 291.993 417.796 293.369C416.451 294.746 414.844 295.838 413.07 296.583C411.296 297.327 409.39 297.708 407.466 297.702ZM121.623 109.941C119.855 109.935 118.105 110.285 116.475 110.968C114.846 111.652 113.37 112.655 112.135 113.92C110.901 115.184 109.932 116.683 109.288 118.329C108.643 119.974 108.336 121.732 108.383 123.499L112.1 282.94C112.204 286.565 113.712 290.007 116.305 292.541C118.898 295.075 122.375 296.502 126 296.522H407.466C409.231 296.526 410.98 296.176 412.608 295.492C414.236 294.809 415.711 293.806 416.945 292.544C418.179 291.281 419.148 289.784 419.794 288.14C420.44 286.497 420.75 284.741 420.705 282.976L417.012 123.522C416.908 119.898 415.4 116.456 412.807 113.922C410.214 111.388 406.737 109.96 403.112 109.941H121.623Z" fill="#407BFF"/>
<path d="M163.111 153.966L144.078 136.266C153.081 126.543 169.082 126.543 179.478 136.266C182.802 139.354 185.314 143.212 186.794 147.5L163.111 153.966Z" fill="#E0E0E0"/>
<path opacity="0.2" d="M159.147 154.356L134.367 156.539C133.775 152.95 133.984 149.275 134.98 145.777C135.966 142.37 137.731 139.239 140.137 136.632L159.147 154.356Z" fill="#407BFF"/>
<path d="M163.111 155.76L149.376 170.604C147.525 168.878 145.966 166.861 144.762 164.634C143.58 162.425 142.782 160.03 142.402 157.554L163.111 155.76Z" fill="white"/>
<path opacity="0.6" d="M164.445 157.778L188.175 151.288C189.65 155.374 189.991 159.783 189.16 164.047C188.329 168.311 186.357 172.269 183.455 175.501C174.451 185.225 158.45 185.225 148.055 175.501L164.445 157.778Z" fill="#407BFF"/>
<path opacity="0.2" d="M228.306 153.966L209.273 136.266C218.276 126.543 234.277 126.543 244.673 136.266C248 139.353 250.516 143.211 252.001 147.5L228.306 153.966Z" fill="#407BFF"/>
<path d="M224.33 154.356L199.55 156.539C198.956 152.95 199.169 149.273 200.175 145.777C201.152 142.368 202.914 139.236 205.32 136.632L224.33 154.356Z" fill="#E0E0E0"/>
<path opacity="0.6" d="M228.306 155.76L214.559 170.604C212.708 168.878 211.149 166.861 209.946 164.634C208.763 162.425 207.965 160.03 207.586 157.554L228.306 155.76Z" fill="#407BFF"/>
<path d="M229.628 157.778L253.358 151.288C254.838 155.373 255.18 159.783 254.349 164.048C253.517 168.312 251.544 172.271 248.638 175.501C239.634 185.225 223.634 185.225 213.238 175.501L229.628 157.778Z" fill="white"/>
<g opacity="0.3">
<path opacity="0.3" d="M126.177 274.197H126.118C125.964 274.176 125.823 274.097 125.725 273.977C125.626 273.856 125.577 273.703 125.587 273.548C126.933 259.647 135.547 246.325 148.633 237.923C159.973 230.643 174.38 226.961 190.393 227.303C194.499 227.386 198.653 227.728 202.7 228.07C208.841 228.72 215.02 228.933 221.191 228.708C228.094 228.295 240.767 226.182 248.036 216.624C250.483 213.085 252.466 209.246 253.936 205.202C255.895 200.482 257.913 195.514 261.535 191.715C266.35 186.652 273.748 183.773 283.542 183.148C288.595 182.917 293.657 182.964 298.705 183.289C303.059 183.49 307.567 183.702 311.992 183.525C319.804 183.219 330.601 181.342 337.645 174.085C340.878 170.781 343.12 166.557 345.292 162.474C346.472 160.35 347.593 158.144 348.902 156.067C353.385 149 359.61 143.205 366.98 139.24C367.047 139.203 367.121 139.179 367.198 139.171C367.274 139.163 367.351 139.17 367.425 139.192C367.498 139.214 367.567 139.251 367.626 139.299C367.686 139.348 367.735 139.408 367.771 139.476C367.843 139.614 367.859 139.775 367.815 139.925C367.771 140.075 367.67 140.201 367.535 140.278C360.31 144.168 354.213 149.859 349.835 156.798C348.548 158.84 347.38 161.023 346.295 163.135C344.088 167.289 341.811 171.584 338.448 175.018C332.654 180.918 323.509 184.328 311.992 184.776C307.532 184.953 303 184.776 298.623 184.54C293.614 184.221 288.591 184.174 283.578 184.399C274.138 185 266.951 187.762 262.338 192.659C258.868 196.293 256.898 201.119 254.974 205.78C253.477 209.922 251.45 213.852 248.945 217.474C241.381 227.398 228.33 229.593 221.215 230.017C214.992 230.246 208.762 230.029 202.571 229.368C198.559 229.038 194.405 228.696 190.334 228.613C174.605 228.283 160.374 231.905 149.235 239.056C136.455 247.316 127.995 260.296 126.732 273.807C126.688 273.919 126.612 274.016 126.513 274.085C126.415 274.155 126.298 274.193 126.177 274.197Z" fill="#407BFF"/>
<path opacity="0.3" d="M369.446 145.069H369.34C369.19 145.028 369.063 144.929 368.986 144.794C368.908 144.659 368.887 144.499 368.927 144.349L370.213 139.334C370.357 138.763 370.542 138.203 370.768 137.659C370.779 137.639 370.785 137.617 370.785 137.594C370.785 137.571 370.779 137.549 370.768 137.529C367.039 137.626 363.328 138.084 359.688 138.898C359.612 138.915 359.534 138.917 359.458 138.904C359.382 138.89 359.31 138.862 359.245 138.82C359.18 138.778 359.124 138.724 359.081 138.66C359.037 138.597 359.007 138.525 358.991 138.449C358.974 138.374 358.972 138.296 358.985 138.22C358.999 138.144 359.027 138.072 359.069 138.007C359.111 137.942 359.165 137.886 359.229 137.842C359.292 137.799 359.364 137.768 359.44 137.753C363.124 136.927 366.877 136.445 370.65 136.313C370.861 136.308 371.071 136.354 371.261 136.449C371.45 136.543 371.613 136.683 371.735 136.856C371.862 137.038 371.941 137.25 371.963 137.471C371.986 137.692 371.952 137.915 371.865 138.119C371.666 138.611 371.501 139.115 371.37 139.629L370.072 144.644C370.036 144.778 369.953 144.895 369.838 144.973C369.723 145.051 369.584 145.085 369.446 145.069Z" fill="#407BFF"/>
</g>
<path d="M418.239 132.03C418.239 132.03 401.719 124.785 396.869 145.211C392.94 161.66 384.68 167.82 384.68 167.82C384.68 167.82 413.885 179.1 430.169 165.873L418.239 132.03Z" fill="#263238"/>
<path d="M399.041 200.801C398.439 202.429 397.861 203.821 397.223 205.285C396.586 206.748 395.925 208.152 395.253 209.568C393.896 212.4 392.362 215.138 390.804 217.828C387.646 223.32 383.984 228.507 379.866 233.321L379.075 234.218C378.792 234.537 378.65 234.737 378.06 235.339C376.964 236.442 375.609 237.254 374.119 237.699C372.757 238.082 371.327 238.163 369.93 237.935C368.816 237.76 367.73 237.442 366.697 236.991C365.016 236.239 363.431 235.288 361.977 234.159C360.651 233.14 359.383 232.049 358.177 230.891C353.709 226.436 349.773 221.478 346.448 216.117L350.637 212.955C354.628 217.19 358.919 221.134 363.475 224.755C365.437 226.357 367.634 227.647 369.989 228.578C370.933 228.896 371.582 228.755 371.417 228.708C371.252 228.66 371.263 228.708 371.299 228.708C371.334 228.708 371.558 228.365 371.747 228.106L372.396 227.256C375.847 222.64 378.963 217.781 381.718 212.719C383.111 210.17 384.409 207.562 385.671 204.942C386.297 203.633 386.91 202.323 387.5 201.001C388.09 199.68 388.68 198.299 389.152 197.107L399.041 200.801Z" fill="#FFC3BD"/>
<path d="M395.678 186.605C391.264 186.44 383.5 202.488 383.5 202.488L394.981 216.4C394.981 216.4 408.363 199.609 406.534 194.181C404.575 188.529 402.097 186.829 395.678 186.605Z" fill="#263238"/>
<path opacity="0.2" d="M394.946 190.476L388.975 209.179L394.356 215.68L394.946 190.476Z" fill="black"/>
<path d="M349.693 218.041L337.48 214.949L345.74 208.424C345.74 208.424 351.876 211.008 352.265 215.303L349.693 218.041Z" fill="#FFC3BD"/>
<path d="M331.757 209.71L338.094 204.99L345.693 208.424L337.421 214.949L331.757 209.71Z" fill="#FFC3BD"/>
<path d="M426.841 474.632H416.481L416.988 450.63H427.349L426.841 474.632Z" fill="#FFC3BD"/>
<path d="M415.478 473.428H427.16C427.36 473.426 427.554 473.496 427.706 473.627C427.858 473.757 427.957 473.938 427.986 474.136L429.308 483.352C429.333 483.585 429.308 483.82 429.236 484.043C429.163 484.266 429.045 484.471 428.888 484.644C428.731 484.818 428.539 484.957 428.324 485.051C428.11 485.146 427.878 485.194 427.644 485.192C423.585 485.122 421.626 484.886 416.505 484.886C413.354 484.886 404.315 485.216 399.985 485.216C395.654 485.216 395.406 480.909 397.212 480.496C405.33 478.75 411.065 476.342 413.802 474.041C414.276 473.654 414.866 473.438 415.478 473.428Z" fill="#263238"/>
<g opacity="0.2">
<path opacity="0.2" d="M416.988 450.63L416.729 463.009H427.089L427.361 450.63H416.988Z" fill="black"/>
</g>
<path d="M391.512 191.738C391.288 198.299 392.421 213.604 399.312 249.228L441.391 247.977C440.211 230.879 439.845 220.318 446.984 184.93C441.057 183.89 435.063 183.279 429.048 183.101C422.67 182.837 416.282 183.03 409.932 183.679C405.07 184.269 399.819 185.272 396.374 186.039C395.045 186.313 393.846 187.022 392.965 188.054C392.085 189.087 391.573 190.383 391.512 191.738Z" fill="#263238"/>
<path d="M426.511 161.66C425.484 167.843 424.623 179.148 429.048 183.113C425.722 188.349 420.486 192.083 414.451 193.52C404.752 188.6 409.932 183.679 409.932 183.679C416.741 181.838 416.41 176.752 415.077 172.009L426.511 161.66Z" fill="#FFC3BD"/>
<path d="M414.451 193.52L415.702 191.066L422.44 192.588L414.451 193.52Z" fill="#E0E0E0"/>
<path d="M415.702 191.066C417.873 190.075 427.88 183.561 428.269 181.52C429.06 182.381 433.296 182.641 433.296 182.641C433.296 182.641 430.759 194.287 425.85 202.807C422.499 195.208 419.313 193.426 415.702 191.066Z" fill="white"/>
<path d="M414.451 193.52L413.885 191.066L409.755 191.361L414.451 193.52Z" fill="#E0E0E0"/>
<path d="M413.885 191.066C410.546 188.847 411.36 184.21 411.69 182.18C410.9 183.03 406.663 183.289 406.663 183.289C406.663 183.289 400.669 194.287 405.59 202.807C407.914 196.694 410.274 193.426 413.885 191.066Z" fill="white"/>
<path opacity="0.2" d="M421.85 165.873L415.089 172.009C415.412 173.112 415.64 174.241 415.773 175.384C418.381 174.923 421.897 171.938 422.086 169.189C422.209 168.078 422.129 166.955 421.85 165.873Z" fill="black"/>
<path d="M429.874 147.5C429.744 157.79 429.874 162.144 424.989 167.655C417.578 175.915 404.929 173.555 402.026 163.43C399.383 154.332 400.032 139.04 409.873 134.461C412.038 133.442 414.427 132.994 416.814 133.159C419.201 133.323 421.506 134.096 423.51 135.402C425.514 136.709 427.151 138.506 428.265 140.624C429.379 142.741 429.933 145.108 429.874 147.5Z" fill="#FFC3BD"/>
<path d="M429.036 152.444L416.115 151.807C416.076 151.806 416.038 151.796 416.003 151.78C415.968 151.764 415.936 151.741 415.91 151.712C415.884 151.684 415.863 151.65 415.85 151.614C415.836 151.578 415.83 151.539 415.832 151.5C415.833 151.46 415.843 151.421 415.86 151.385C415.877 151.349 415.901 151.317 415.931 151.291C415.961 151.264 415.995 151.244 416.033 151.231C416.071 151.219 416.111 151.214 416.151 151.217L429.072 151.854C429.11 151.857 429.148 151.868 429.183 151.885C429.218 151.903 429.248 151.927 429.274 151.957C429.299 151.987 429.318 152.021 429.33 152.058C429.342 152.095 429.346 152.134 429.343 152.173C429.342 152.211 429.332 152.249 429.316 152.283C429.3 152.318 429.276 152.349 429.248 152.374C429.219 152.4 429.185 152.419 429.149 152.431C429.113 152.443 429.074 152.447 429.036 152.444Z" fill="white"/>
<path d="M399.312 249.228C399.312 249.228 404.634 326.223 407.572 357.694C410.652 390.439 414.652 460.613 414.652 460.613H428.659C428.659 460.613 431.585 389.247 430.476 356.95C429.296 321.751 430.039 248.319 430.039 248.319L399.312 249.228Z" fill="#263238"/>
<path d="M429.957 461.109H413.519L412.304 455.869L430.724 455.22L429.957 461.109Z" fill="#407BFF"/>
<path opacity="0.2" d="M429.933 275.813C428.234 273.925 426.393 274.905 424.293 280.285C417.295 298.646 424.753 327.946 430.193 344.82C429.827 323.816 429.839 296.18 429.933 275.813Z" fill="black"/>
<path d="M413 151.937C413 152.775 412.622 153.471 412.08 153.495C411.537 153.518 411.065 152.869 411.018 152.031C410.97 151.194 411.383 150.497 411.938 150.474C412.493 150.45 413 151.099 413 151.937Z" fill="#263238"/>
<path d="M403.56 152.22C403.56 153.058 403.182 153.754 402.64 153.778C402.097 153.801 401.625 153.152 401.578 152.315C401.53 151.477 401.943 150.781 402.498 150.757C403.053 150.733 403.56 151.323 403.56 152.22Z" fill="#263238"/>
<path d="M402.722 150.733L400.693 150.25C400.693 150.25 401.802 151.772 402.722 150.733Z" fill="#263238"/>
<path d="M407.194 152.845C406.547 154.787 405.633 156.629 404.48 158.321C404.92 158.608 405.418 158.795 405.938 158.866C406.459 158.938 406.989 158.892 407.489 158.734L407.194 152.845Z" fill="#ED847E"/>
<path d="M412.198 161.778C411.809 161.859 411.414 161.911 411.018 161.931C410.985 161.933 410.952 161.928 410.922 161.917C410.891 161.906 410.863 161.889 410.839 161.867C410.815 161.845 410.795 161.819 410.781 161.789C410.767 161.76 410.76 161.728 410.758 161.695C410.761 161.632 410.786 161.573 410.829 161.527C410.873 161.481 410.931 161.453 410.994 161.448C412.034 161.421 413.054 161.149 413.969 160.653C414.884 160.156 415.668 159.45 416.257 158.592C416.274 158.564 416.296 158.54 416.322 158.52C416.349 158.501 416.379 158.487 416.411 158.479C416.443 158.472 416.476 158.47 416.508 158.476C416.54 158.481 416.571 158.492 416.599 158.509C416.627 158.525 416.651 158.546 416.67 158.572C416.689 158.597 416.703 158.626 416.711 158.657C416.718 158.688 416.72 158.72 416.715 158.751C416.71 158.783 416.699 158.813 416.682 158.84C416.17 159.606 415.51 160.261 414.739 160.766C413.969 161.271 413.104 161.615 412.198 161.778Z" fill="#263238"/>
<path d="M433.06 156.775C432.761 157.713 432.279 158.582 431.644 159.333C431.008 160.084 430.23 160.703 429.355 161.153C426.995 162.333 425.319 160.362 425.543 157.872C425.744 155.642 427.207 152.315 429.78 152.161C430.342 152.137 430.901 152.255 431.406 152.502C431.911 152.749 432.347 153.119 432.673 153.577C432.999 154.036 433.205 154.569 433.272 155.127C433.34 155.685 433.267 156.252 433.06 156.775Z" fill="#FFC3BD"/>
<path d="M416.693 149.058C416.593 149.08 416.488 149.069 416.394 149.027C416.3 148.984 416.223 148.912 416.174 148.822C415.053 146.851 412.139 146.544 412.115 146.532C412.051 146.526 411.99 146.508 411.933 146.478C411.877 146.447 411.827 146.407 411.787 146.357C411.746 146.308 411.716 146.251 411.697 146.19C411.679 146.129 411.672 146.065 411.678 146.001C411.685 145.938 411.703 145.876 411.733 145.82C411.763 145.764 411.804 145.714 411.853 145.673C411.903 145.633 411.96 145.602 412.021 145.584C412.082 145.565 412.146 145.559 412.209 145.565C412.351 145.565 415.655 145.919 417.024 148.338C417.057 148.393 417.08 148.455 417.089 148.519C417.098 148.583 417.094 148.649 417.078 148.712C417.061 148.774 417.032 148.833 416.993 148.884C416.953 148.936 416.903 148.979 416.847 149.01L416.693 149.058Z" fill="#263238"/>
<path d="M400.516 147.406C400.432 147.426 400.345 147.422 400.264 147.395C400.182 147.367 400.11 147.318 400.055 147.252C400.009 147.207 399.971 147.153 399.946 147.093C399.921 147.034 399.908 146.969 399.908 146.904C399.908 146.839 399.921 146.775 399.946 146.715C399.971 146.655 400.009 146.601 400.055 146.556C400.62 146.021 401.304 145.628 402.051 145.41C402.799 145.193 403.587 145.157 404.351 145.305C404.477 145.339 404.585 145.421 404.652 145.533C404.718 145.646 404.737 145.78 404.705 145.907C404.669 146.032 404.586 146.138 404.474 146.204C404.362 146.27 404.229 146.29 404.103 146.261C403.497 146.147 402.873 146.18 402.284 146.359C401.694 146.538 401.156 146.856 400.716 147.288C400.66 147.342 400.591 147.383 400.516 147.406Z" fill="#263238"/>
<path d="M452.176 196.824C453.557 202.335 454.996 207.952 456.471 213.474C457.946 218.996 459.563 224.507 461.345 229.841C463.126 235.174 465.333 240.461 467.374 245.889C469.416 251.317 471.493 256.792 473.369 262.326L468.649 264.556C465.581 259.553 462.749 254.467 459.952 249.299C458.576 246.719 457.23 244.107 455.917 241.464C454.583 238.856 453.321 236.047 452.2 233.204C449.946 227.61 448.07 221.982 446.394 216.318C444.718 210.654 443.184 204.99 441.886 199.161L452.176 196.824Z" fill="#FFC3BD"/>
<path d="M446.984 184.93C451.232 186.11 456.731 200.447 456.731 200.447L440.718 212.624C440.718 212.624 434.393 200.695 435.998 195.184C437.686 189.461 442.122 183.608 446.984 184.93Z" fill="#263238"/>
<path d="M411.584 475.245C410.698 475.322 409.813 475.098 409.071 474.608C408.908 474.46 408.783 474.277 408.705 474.072C408.627 473.866 408.599 473.646 408.622 473.428C408.632 473.293 408.677 473.162 408.751 473.049C408.825 472.935 408.927 472.842 409.047 472.779C410.31 472.083 414.44 474.195 414.947 474.431C414.992 474.456 415.028 474.495 415.052 474.541C415.075 474.587 415.084 474.639 415.077 474.69C415.072 474.742 415.049 474.79 415.012 474.826C414.976 474.863 414.928 474.886 414.876 474.891C413.793 475.114 412.69 475.233 411.584 475.245ZM409.731 473.097C409.577 473.088 409.424 473.117 409.283 473.18C409.233 473.206 409.192 473.245 409.163 473.293C409.133 473.34 409.118 473.395 409.118 473.451C409.095 473.596 409.109 473.745 409.158 473.883C409.208 474.021 409.291 474.145 409.401 474.242C410.026 474.808 411.761 474.903 414.027 474.525C412.688 473.806 411.235 473.323 409.731 473.097Z" fill="#407BFF"/>
<path d="M414.794 474.879H414.699C413.46 474.313 411.018 472.083 411.159 470.914C411.159 470.631 411.407 470.289 412.08 470.218C412.325 470.19 412.573 470.213 412.809 470.286C413.045 470.359 413.262 470.481 413.448 470.643C414.746 471.729 414.982 474.513 414.994 474.631C414.998 474.675 414.99 474.718 414.971 474.758C414.953 474.797 414.924 474.831 414.888 474.856C414.858 474.87 414.826 474.878 414.794 474.879ZM412.327 470.678H412.186C411.737 470.678 411.702 470.903 411.69 470.962C411.584 471.67 413.236 473.428 414.499 474.195C414.4 473.018 413.938 471.9 413.177 470.997C412.944 470.788 412.64 470.675 412.327 470.678Z" fill="#407BFF"/>
<path d="M487.659 474.632H477.298L471.021 450.63H481.393L487.659 474.632Z" fill="#FFC3BD"/>
<path d="M487.753 473.428H476.106C476.013 473.42 475.919 473.433 475.831 473.466C475.744 473.5 475.665 473.552 475.6 473.62C475.535 473.688 475.487 473.77 475.458 473.859C475.429 473.948 475.421 474.043 475.434 474.136L476.142 483.352C476.218 483.851 476.466 484.307 476.843 484.643C477.22 484.979 477.702 485.174 478.207 485.192C482.254 485.122 484.107 484.886 489.275 484.886C492.426 484.886 495.565 485.216 499.895 485.216C504.226 485.216 503.53 480.909 501.63 480.496C493.122 478.75 492.839 476.342 489.594 474.041C489.056 473.657 488.414 473.443 487.753 473.428Z" fill="#263238"/>
<g opacity="0.2">
<path opacity="0.2" d="M471.032 450.63L474.254 463.009H484.626L481.393 450.63H471.032Z" fill="black"/>
</g>
<path d="M441.391 247.977C453.368 264.025 460.66 322.954 465.958 354.46C471.469 387.229 485.015 460.66 485.015 460.66H471.009C471.009 460.66 451.952 385.966 441.969 354.342C430.936 319.426 414.451 248.024 414.451 248.024L441.391 247.977Z" fill="#263238"/>
<path d="M486.018 461.109H469.569L468.366 455.869L486.785 455.22L486.018 461.109Z" fill="#407BFF"/>
<path d="M489.134 473.723C489.969 473.412 490.672 472.825 491.128 472.059C491.213 471.853 491.247 471.629 491.227 471.407C491.206 471.185 491.132 470.971 491.01 470.785C490.944 470.668 490.85 470.571 490.737 470.501C490.623 470.43 490.494 470.39 490.361 470.383C488.909 470.301 486.089 473.982 485.771 474.407C485.742 474.449 485.726 474.498 485.726 474.549C485.726 474.599 485.742 474.649 485.771 474.69C485.797 474.733 485.837 474.765 485.884 474.782C485.931 474.799 485.983 474.8 486.03 474.785C487.096 474.53 488.135 474.174 489.134 473.723ZM489.877 470.985C490.016 470.913 490.169 470.873 490.325 470.867C490.381 470.869 490.435 470.887 490.481 470.918C490.527 470.95 490.563 470.993 490.585 471.044C490.668 471.163 490.72 471.301 490.737 471.445C490.753 471.59 490.734 471.736 490.679 471.87C490.349 472.649 488.85 473.475 486.62 474.124C487.521 472.902 488.622 471.841 489.877 470.985Z" fill="#407BFF"/>
<path d="M486.077 474.773C486.109 474.76 486.138 474.74 486.16 474.714C487.033 473.676 488.272 470.608 487.6 469.628C487.434 469.392 487.104 469.168 486.42 469.404C486.188 469.485 485.975 469.613 485.795 469.78C485.614 469.946 485.469 470.147 485.369 470.372C484.661 471.906 485.653 474.525 485.688 474.643C485.704 474.683 485.729 474.718 485.762 474.745C485.795 474.771 485.835 474.789 485.877 474.797C485.91 474.809 485.945 474.813 485.98 474.809C486.015 474.805 486.048 474.792 486.077 474.773ZM486.49 469.923L486.632 469.864C487.057 469.711 487.163 469.864 487.187 469.864C487.6 470.442 486.856 472.743 486.007 473.982C485.586 472.878 485.52 471.669 485.818 470.525C485.959 470.248 486.199 470.033 486.49 469.923Z" fill="#407BFF"/>
<path d="M412.162 150.509L410.133 150.025C410.133 150.025 411.242 151.548 412.162 150.509Z" fill="#263238"/>
<path d="M441.945 245.44L443.125 249.181C443.279 249.464 442.937 249.771 442.453 249.794L399.147 251.08C398.769 251.08 398.451 250.915 398.415 250.679L397.931 246.915C397.931 246.655 398.215 246.431 398.628 246.419L441.237 245.145C441.371 245.13 441.506 245.149 441.63 245.201C441.753 245.253 441.862 245.335 441.945 245.44Z" fill="#407BFF"/>
<path d="M436.364 250.432H437.544C437.768 250.432 437.933 250.302 437.922 250.16L437.237 245.275C437.237 245.133 437.013 245.027 436.789 245.027H435.609C435.385 245.027 435.219 245.157 435.231 245.299L435.916 250.184C435.939 250.325 436.14 250.432 436.364 250.432Z" fill="#263238"/>
<path d="M402.38 251.434H403.56C403.784 251.434 403.949 251.305 403.938 251.163L403.253 246.29C403.253 246.148 403.029 246.03 402.805 246.042H401.625C401.401 246.042 401.235 246.172 401.247 246.313L401.932 251.187C401.955 251.34 402.156 251.446 402.38 251.434Z" fill="#263238"/>
<path d="M419.372 250.927H420.552C420.776 250.927 420.941 250.797 420.93 250.644L420.245 245.77C420.245 245.629 420.021 245.523 419.797 245.523H418.617C418.393 245.523 418.227 245.653 418.239 245.794L418.924 250.667C418.9 250.833 419.148 250.939 419.372 250.927Z" fill="#263238"/>
<path d="M472.177 260.462L480.437 268.025L469.982 269.371C469.982 269.371 466.065 264.002 467.929 260.119L472.177 260.462Z" fill="#FFC3BD"/>
<path d="M481.841 276.627L473.027 277.276L469.959 269.371L480.413 268.037L481.841 276.627Z" fill="#FFC3BD"/>
<path d="M419.49 133.104C419.49 133.104 410.793 129.116 401.2 141.211C412.752 144.644 420.517 142.261 420.517 142.261L419.49 133.104Z" fill="#263238"/>
<path d="M418.239 132.03C418.239 132.03 420.34 162.439 418.239 177.59C430.44 173.72 442.111 161.648 442.111 161.648C442.111 161.648 440.4 128.361 418.239 132.03Z" fill="#263238"/>
<path d="M412.044 158.982C409.307 158.982 406.793 155.595 406.427 151.43C406.272 150.312 406.343 149.174 406.634 148.083C406.926 146.993 407.434 145.972 408.127 145.081C408.454 144.695 408.86 144.383 409.318 144.168C409.776 143.952 410.275 143.837 410.782 143.83C413.519 143.83 416.044 147.217 416.41 151.382C416.567 152.501 416.496 153.64 416.202 154.731C415.908 155.822 415.397 156.842 414.699 157.731C414.372 158.117 413.965 158.428 413.507 158.644C413.049 158.86 412.55 158.975 412.044 158.982ZM410.782 144.42C410.359 144.43 409.943 144.529 409.561 144.71C409.179 144.891 408.839 145.15 408.563 145.471C407.927 146.302 407.462 147.252 407.197 148.265C406.931 149.278 406.87 150.334 407.017 151.371C407.348 155.229 409.613 158.38 412.044 158.38C412.469 158.373 412.887 158.274 413.269 158.091C413.652 157.908 413.991 157.644 414.263 157.318C414.903 156.488 415.37 155.538 415.637 154.525C415.905 153.512 415.967 152.455 415.82 151.418C415.478 147.559 413.224 144.42 410.782 144.42Z" fill="white"/>
<path d="M401.766 158.982C399.548 158.982 397.518 155.666 397.153 151.43C396.905 148.586 397.495 146.002 398.687 144.704C398.91 144.438 399.188 144.222 399.501 144.072C399.815 143.921 400.156 143.839 400.504 143.83C402.722 143.83 404.74 147.146 405.118 151.382C405.354 154.226 404.764 156.799 403.572 158.108C403.349 158.373 403.073 158.587 402.762 158.738C402.451 158.888 402.112 158.971 401.766 158.982ZM400.504 144.42C400.238 144.426 399.976 144.491 399.737 144.609C399.499 144.727 399.289 144.896 399.123 145.105C398.049 146.285 397.507 148.739 397.743 151.382C398.061 155.182 399.914 158.392 401.766 158.392C402.03 158.382 402.289 158.315 402.525 158.197C402.761 158.079 402.969 157.912 403.135 157.707C404.209 156.527 404.752 154.073 404.528 151.43C404.197 147.63 402.38 144.42 400.504 144.42Z" fill="white"/>
<path d="M406.722 151.701H406.593C406.344 151.569 406.066 151.5 405.784 151.5C405.502 151.5 405.225 151.569 404.976 151.701C404.91 151.741 404.831 151.753 404.756 151.735C404.681 151.718 404.616 151.672 404.575 151.607C404.553 151.575 404.538 151.539 404.53 151.502C404.523 151.464 404.523 151.426 404.53 151.388C404.538 151.351 404.553 151.315 404.575 151.284C404.597 151.252 404.625 151.226 404.657 151.205C404.994 151.03 405.369 150.938 405.749 150.938C406.129 150.938 406.503 151.03 406.84 151.205C406.91 151.239 406.965 151.298 406.994 151.37C407.022 151.442 407.022 151.522 406.994 151.595C406.96 151.632 406.917 151.661 406.87 151.679C406.823 151.698 406.773 151.705 406.722 151.701Z" fill="white"/>
<path d="M456.259 331.391H133.729V342.401H456.259V331.391Z" fill="#407BFF"/>
<path opacity="0.8" d="M456.259 331.391H133.729V342.401H456.259V331.391Z" fill="white"/>
<path opacity="0.3" d="M456.271 331.391H361.871V342.401H456.271V331.391Z" fill="#407BFF"/>
<path d="M384.881 489.311H378.591L370.225 342.401H384.881V489.311Z" fill="#407BFF"/>
<path d="M449.969 489.311H456.271L447.904 342.401H433.249L449.969 489.311Z" fill="#407BFF"/>
<path d="M140.031 489.311H133.729L142.096 342.401H156.751L140.031 489.311Z" fill="#407BFF"/>
<path d="M205.119 489.311H211.409L219.775 342.401H205.119V489.311Z" fill="#407BFF"/>
<path d="M356.891 278.645H288.073C287.271 278.671 286.501 278.969 285.889 279.49C285.278 280.011 284.863 280.724 284.71 281.513L277.182 324.618C277.107 324.966 277.112 325.327 277.197 325.674C277.281 326.02 277.443 326.343 277.67 326.618C277.897 326.892 278.184 327.112 278.508 327.26C278.832 327.409 279.186 327.481 279.542 327.474H348.348C349.149 327.449 349.918 327.152 350.529 326.634C351.139 326.115 351.556 325.404 351.711 324.618L359.239 281.513C359.316 281.164 359.313 280.803 359.23 280.456C359.147 280.109 358.986 279.786 358.76 279.51C358.534 279.234 358.249 279.012 357.925 278.863C357.601 278.713 357.248 278.639 356.891 278.645Z" fill="#407BFF"/>
<path opacity="0.2" d="M356.891 278.645H288.073C287.271 278.671 286.501 278.969 285.889 279.49C285.278 280.011 284.863 280.724 284.71 281.513L277.182 324.618C277.107 324.966 277.112 325.327 277.197 325.674C277.281 326.02 277.443 326.343 277.67 326.618C277.897 326.892 278.184 327.112 278.508 327.26C278.832 327.409 279.186 327.481 279.542 327.474H348.348C349.149 327.449 349.918 327.152 350.529 326.634C351.139 326.115 351.556 325.404 351.711 324.618L359.239 281.513C359.316 281.164 359.313 280.803 359.23 280.456C359.147 280.109 358.986 279.786 358.76 279.51C358.534 279.234 358.249 279.012 357.925 278.863C357.601 278.713 357.248 278.639 356.891 278.645Z" fill="white"/>
<path d="M355.569 278.645H286.74C285.937 278.671 285.167 278.969 284.556 279.49C283.945 280.011 283.529 280.724 283.377 281.513L275.849 324.618C275.774 324.966 275.779 325.327 275.863 325.674C275.948 326.02 276.11 326.343 276.337 326.618C276.564 326.892 276.85 327.112 277.174 327.26C277.499 327.409 277.852 327.481 278.209 327.473H347.014C347.83 327.467 348.618 327.18 349.246 326.659C349.873 326.139 350.302 325.418 350.46 324.618L357.988 281.513C358.067 281.158 358.063 280.79 357.976 280.438C357.889 280.086 357.722 279.758 357.488 279.481C357.254 279.203 356.959 278.983 356.626 278.839C356.294 278.694 355.932 278.627 355.569 278.645Z" fill="#407BFF"/>
<path opacity="0.4" d="M355.569 278.645H286.74C285.937 278.671 285.167 278.969 284.556 279.49C283.945 280.011 283.529 280.724 283.377 281.513L275.849 324.618C275.774 324.966 275.779 325.327 275.863 325.674C275.948 326.02 276.11 326.343 276.337 326.618C276.564 326.892 276.85 327.112 277.174 327.26C277.499 327.409 277.852 327.481 278.209 327.473H347.014C347.83 327.467 348.618 327.18 349.246 326.659C349.873 326.139 350.302 325.418 350.46 324.618L357.988 281.513C358.067 281.158 358.063 280.79 357.976 280.438C357.889 280.086 357.722 279.758 357.488 279.481C357.254 279.203 356.959 278.983 356.626 278.839C356.294 278.694 355.932 278.627 355.569 278.645Z" fill="white"/>
<path d="M278.244 326.293C278.063 326.301 277.883 326.269 277.716 326.2C277.549 326.131 277.399 326.026 277.276 325.892C277.162 325.741 277.082 325.566 277.041 325.381C277.001 325.196 277 325.004 277.04 324.818L284.569 281.713C284.673 281.199 284.945 280.735 285.343 280.393C285.74 280.051 286.24 279.851 286.764 279.825H355.569C355.751 279.819 355.932 279.854 356.099 279.925C356.266 279.996 356.415 280.103 356.537 280.238C356.652 280.389 356.732 280.564 356.773 280.749C356.814 280.934 356.814 281.126 356.773 281.312L349.28 324.405C349.176 324.919 348.904 325.384 348.506 325.726C348.109 326.067 347.609 326.267 347.085 326.293H278.244Z" fill="white"/>
<path d="M347.392 327.474H260.851C259.836 327.48 258.864 327.886 258.146 328.604C257.428 329.322 257.022 330.293 257.016 331.309H351.227C351.221 330.293 350.815 329.322 350.097 328.604C349.379 327.886 348.407 327.48 347.392 327.474Z" fill="#407BFF"/>
<path opacity="0.4" d="M347.392 327.474H260.851C259.836 327.48 258.864 327.886 258.146 328.604C257.428 329.322 257.022 330.293 257.016 331.309H351.227C351.221 330.293 350.815 329.322 350.097 328.604C349.379 327.886 348.407 327.48 347.392 327.474Z" fill="white"/>
<path opacity="0.8" d="M347.392 327.474H328.111C327.096 327.48 326.124 327.886 325.406 328.604C324.688 329.322 324.282 330.293 324.276 331.309H351.227C351.221 330.293 350.815 329.322 350.097 328.604C349.379 327.886 348.407 327.48 347.392 327.474Z" fill="#407BFF"/>
<path d="M392.716 312.134H380.078C379.302 312.134 378.674 312.762 378.674 313.538V329.987C378.674 330.762 379.302 331.391 380.078 331.391H392.716C393.491 331.391 394.12 330.762 394.12 329.987V313.538C394.12 312.762 393.491 312.134 392.716 312.134Z" fill="#407BFF"/>
<path d="M380.703 321.515L380.928 320.405H379.866V319.225H381.14L381.447 317.668H382.627L382.308 319.225H383.264L383.583 317.668H384.822L384.503 319.225H385.105V320.405H384.267L384.043 321.515H385.105V322.695H383.795L383.488 324.229H382.32L382.627 322.706H381.671L381.364 324.24H380.184L380.491 322.706H379.889V321.526L380.703 321.515ZM381.942 321.515H382.898L383.122 320.405H382.167L381.942 321.515Z" fill="white"/>
<path d="M389.872 317.656V324.146H388.078V319.886C387.817 320.093 387.536 320.275 387.241 320.429C386.908 320.582 386.565 320.712 386.214 320.818V319.367C386.724 319.216 387.203 318.977 387.63 318.659C387.962 318.388 388.228 318.045 388.409 317.656H389.872Z" fill="white"/>
<path d="M395.571 329.279C392.515 329.279 390.12 325.975 390.12 321.762C390.12 317.55 392.562 314.234 395.571 314.234C398.58 314.234 401.023 317.609 401.023 321.762C401.023 325.916 398.628 329.279 395.571 329.279ZM395.571 315.968C393.554 315.968 391.854 318.612 391.854 321.762C391.854 324.913 393.554 327.544 395.571 327.544C397.589 327.544 399.288 324.901 399.288 321.762C399.288 318.623 397.577 315.968 395.571 315.968Z" fill="#407BFF"/>
<path d="M214.229 276.25L213.132 277.949L211.952 279.813C211.185 281.064 210.441 282.338 209.698 283.625C208.235 286.197 206.819 288.805 205.509 291.448C202.876 296.653 200.67 302.064 198.913 307.626C198.488 308.995 198.11 310.363 197.733 311.732L197.249 313.797L197.048 314.824L196.942 315.343C196.942 315.508 196.871 315.732 196.871 315.685C196.871 315.638 196.777 315.685 196.659 315.378C196.532 315.105 196.337 314.869 196.092 314.694C195.892 314.576 195.856 314.694 195.963 314.8C196.207 315.022 196.481 315.209 196.777 315.355C197.784 315.85 198.851 316.215 199.951 316.44C201.286 316.752 202.637 316.992 203.998 317.16C206.807 317.526 209.898 317.703 212.801 317.856H213.096C214.052 317.906 214.961 318.286 215.669 318.93C216.377 319.574 216.839 320.444 216.979 321.391C217.118 322.338 216.924 323.304 216.432 324.124C215.939 324.945 215.177 325.57 214.276 325.892C211.018 327.061 207.65 327.895 204.223 328.382C200.391 329.007 196.477 328.907 192.682 328.087C191.456 327.786 190.269 327.347 189.142 326.777C187.718 326.055 186.432 325.088 185.343 323.922C184.069 322.538 183.125 320.884 182.581 319.084C182.119 317.459 181.956 315.764 182.098 314.08C182.098 313.632 182.098 313.467 182.168 313.243L182.251 312.594L182.404 311.272C182.534 310.411 182.652 309.537 182.794 308.676C183.089 306.953 183.419 305.242 183.832 303.567C185.447 296.935 187.716 290.481 190.605 284.297C192.033 281.253 193.555 278.256 195.219 275.341C196.045 273.878 196.918 272.438 197.815 271.01C198.264 270.291 198.724 269.583 199.208 268.863C199.691 268.143 200.14 267.494 200.753 266.644C202.024 264.935 203.906 263.783 206.006 263.428C208.106 263.073 210.262 263.543 212.024 264.74C213.785 265.937 215.017 267.768 215.461 269.851C215.905 271.934 215.527 274.108 214.406 275.919L214.229 276.25Z" fill="#407BFF"/>
<path d="M245.782 228.625C245.9 229.427 246.419 230.005 246.962 229.935C247.505 229.864 247.812 229.144 247.694 228.353C247.576 227.563 247.057 226.973 246.514 227.044C245.971 227.114 245.664 227.834 245.782 228.625Z" fill="#263238"/>
<path d="M246.349 230.017C247.66 232.309 249.28 234.409 251.163 236.26C250.678 236.729 250.096 237.086 249.457 237.306C248.819 237.526 248.141 237.604 247.47 237.534L246.349 230.017Z" fill="#A02724"/>
<path d="M242.301 224.636C242.401 224.628 242.494 224.582 242.561 224.507C242.973 224.079 243.481 223.756 244.044 223.565C244.606 223.374 245.207 223.32 245.794 223.409C245.917 223.434 246.046 223.41 246.151 223.341C246.257 223.273 246.332 223.166 246.36 223.043C246.385 222.921 246.36 222.795 246.292 222.691C246.223 222.587 246.116 222.514 245.995 222.489C245.254 222.366 244.495 222.424 243.782 222.658C243.069 222.893 242.423 223.296 241.9 223.834C241.813 223.924 241.764 224.045 241.764 224.17C241.764 224.296 241.813 224.416 241.9 224.507C241.953 224.556 242.017 224.594 242.086 224.616C242.155 224.639 242.229 224.646 242.301 224.636Z" fill="#263238"/>
<path d="M222.406 237.416C222.749 244.85 222.182 258.278 216.412 262.349C216.412 262.349 217.297 269.96 230.714 271.966C245.452 274.161 238.856 265.689 238.856 265.689C231.091 262.574 232.189 256.626 234.431 251.234L222.406 237.416Z" fill="#B55B52"/>
<path d="M214.099 265.323C213.521 261.96 212.919 258.125 215.456 257.535C218.241 256.886 232.661 258.809 237.215 262.255C241.77 265.701 239.434 271.695 239.434 271.695L214.099 265.323Z" fill="#E0E0E0"/>
<path d="M252.98 277.855C253.523 289.749 252.98 313.337 244.909 349.044H191.549C191.219 341.622 198.877 309.62 198.216 274.456C198.184 272.694 198.502 270.942 199.153 269.304C199.803 267.665 200.774 266.173 202.007 264.913C203.24 263.653 204.712 262.652 206.336 261.966C207.96 261.281 209.705 260.926 211.468 260.922C212.518 260.922 213.627 260.922 214.772 261.051C222.32 261.577 229.831 262.554 237.263 263.978C239.481 264.485 241.64 265.075 243.599 265.677C246.227 266.494 248.538 268.102 250.217 270.281C251.896 272.461 252.861 275.106 252.98 277.855Z" fill="#407BFF"/>
<path opacity="0.2" d="M244.921 299.26C244.071 305.301 242.112 315.78 249.181 327.367C249.983 322.565 250.632 318.069 251.163 313.868L244.921 299.26Z" fill="black"/>
<path d="M286.504 313.88L295.484 310.788L291.826 301.348C289.785 301.644 287.863 302.489 286.265 303.792C284.667 305.095 283.452 306.808 282.752 308.747L286.504 313.88Z" fill="#B55B52"/>
<path d="M300.239 308.098L301.195 300.475L291.826 301.254L295.484 310.729L300.239 308.098Z" fill="#B55B52"/>
<path d="M252.921 276.757C253.417 278.492 254.03 280.509 254.62 282.397C255.21 284.285 255.8 286.221 256.485 288.12C257.759 291.92 259.163 295.661 260.638 299.319C262.113 302.977 263.765 306.528 265.547 309.844C267.175 312.981 269.154 315.922 271.447 318.612L262.798 317.278C264.462 316.558 266.173 315.815 267.895 314.918C269.618 314.021 271.376 313.219 273.111 312.275L278.421 309.478C280.191 308.546 281.961 307.531 283.766 306.658L283.955 306.564C284.798 306.141 285.759 306.016 286.682 306.209C287.605 306.402 288.435 306.901 289.038 307.626C289.642 308.351 289.982 309.258 290.004 310.201C290.025 311.144 289.728 312.066 289.159 312.818C287.839 314.562 286.429 316.235 284.935 317.833C283.46 319.426 281.914 320.936 280.309 322.423C278.704 323.91 277.005 325.314 275.235 326.659C273.465 328.004 271.589 329.302 269.595 330.506C268.317 331.268 266.826 331.592 265.347 331.428C263.869 331.264 262.485 330.621 261.405 329.597L260.945 329.161C257.448 325.77 254.413 321.934 251.918 317.75C249.549 313.903 247.44 309.902 245.605 305.773C243.753 301.726 242.16 297.619 240.708 293.489C239.988 291.424 239.292 289.348 238.667 287.259C238.041 285.17 237.487 283.117 236.885 280.804C236.32 278.687 236.619 276.433 237.717 274.536C238.815 272.64 240.621 271.257 242.738 270.692C244.855 270.127 247.11 270.426 249.006 271.524C250.903 272.622 252.286 274.428 252.85 276.545L252.921 276.757Z" fill="#407BFF"/>
<path d="M218.984 230.914C221.049 240.59 221.757 246.36 227.445 250.644C236 257.086 247.399 250.809 248.272 240.696C249.051 231.598 245.558 217.297 235.41 214.831C233.174 214.278 230.834 214.305 228.611 214.911C226.389 215.517 224.359 216.681 222.713 218.293C221.067 219.904 219.86 221.91 219.208 224.119C218.555 226.328 218.478 228.667 218.984 230.914Z" fill="#B55B52"/>
<path d="M239.835 231.929C244.461 231.575 244.189 229.439 243.151 227.87C242.112 226.3 240.85 220.66 240.85 220.66C240.85 220.66 247.281 222.359 245.959 216.199C244.638 210.04 235.953 202.24 228.365 207.019C213.25 204.529 208.305 210.63 210.665 216.27C198.665 221.58 207.326 232.33 212.105 232.33C207.845 236.13 214.205 241.605 224.519 247.753C232.071 238.655 243.21 241.097 239.835 231.929Z" fill="#263238"/>
<path d="M230.489 210.111C230.332 210.109 230.177 210.075 230.034 210.012C229.89 209.949 229.76 209.859 229.652 209.745C227.893 207.976 225.701 206.7 223.295 206.044C220.889 205.387 218.353 205.374 215.94 206.004C215.636 206.075 215.317 206.023 215.052 205.86C214.787 205.696 214.597 205.434 214.524 205.131C214.453 204.828 214.505 204.508 214.669 204.243C214.832 203.978 215.094 203.788 215.397 203.715C218.212 202.997 221.166 203.024 223.967 203.793C226.769 204.563 229.322 206.049 231.374 208.105C231.594 208.326 231.718 208.625 231.718 208.937C231.718 209.248 231.594 209.547 231.374 209.769C231.259 209.884 231.12 209.974 230.968 210.032C230.815 210.091 230.653 210.118 230.489 210.111Z" fill="#263238"/>
<path d="M214.854 243.08C214.699 243.081 214.545 243.051 214.401 242.992C214.258 242.934 214.127 242.847 214.017 242.738C210.689 239.386 209.297 236.767 209.721 234.478C209.92 233.613 210.33 232.811 210.915 232.143C211.5 231.476 212.241 230.964 213.073 230.654C213.356 230.52 213.681 230.503 213.976 230.608C214.272 230.714 214.513 230.932 214.648 231.215C214.782 231.498 214.799 231.823 214.694 232.119C214.589 232.414 214.371 232.656 214.087 232.79C212.848 233.38 212.188 234.065 212.046 234.879C211.904 235.693 212.376 237.734 215.692 241.062C215.803 241.172 215.891 241.302 215.95 241.446C216.01 241.59 216.041 241.744 216.041 241.9C216.041 242.056 216.01 242.21 215.95 242.354C215.891 242.497 215.803 242.628 215.692 242.738C215.582 242.847 215.451 242.934 215.307 242.992C215.164 243.051 215.01 243.081 214.854 243.08Z" fill="#263238"/>
<path d="M234.147 231.174C234.939 233.503 236.473 235.509 238.513 236.885C241.216 238.667 243.045 236.649 242.691 233.734C242.372 231.103 240.578 227.008 237.676 226.383C234.773 225.757 233.239 228.353 234.147 231.174Z" fill="#B55B52"/>
<path d="M326.412 480.673C327.686 480.673 328.925 480.496 329.338 479.929C329.444 479.777 329.501 479.596 329.501 479.41C329.501 479.225 329.444 479.043 329.338 478.891C329.258 478.753 329.151 478.633 329.023 478.538C328.895 478.442 328.75 478.374 328.595 478.336C326.931 477.888 323.45 479.87 323.296 479.965C323.255 479.987 323.222 480.022 323.203 480.065C323.184 480.107 323.179 480.155 323.19 480.201C323.196 480.248 323.216 480.293 323.248 480.329C323.279 480.364 323.321 480.39 323.367 480.401C324.373 480.575 325.391 480.666 326.412 480.673ZM327.993 478.738C328.144 478.738 328.295 478.757 328.441 478.797C328.539 478.816 328.631 478.855 328.712 478.912C328.794 478.969 328.862 479.042 328.913 479.127C329.078 479.422 329.019 479.564 328.913 479.646C328.441 480.295 325.916 480.307 324.063 480.047C325.291 479.356 326.642 478.911 328.04 478.738H327.993Z" fill="#407BFF"/>
<path d="M323.391 480.402H323.485C324.665 479.871 327.084 477.711 326.895 476.578C326.895 476.319 326.671 475.988 326.022 475.918C325.788 475.893 325.552 475.916 325.327 475.985C325.102 476.054 324.893 476.168 324.712 476.319C323.438 477.369 323.167 480.059 323.155 480.166C323.153 480.207 323.162 480.248 323.181 480.285C323.199 480.322 323.227 480.354 323.261 480.378C323.3 480.402 323.346 480.411 323.391 480.402ZM325.833 476.354H325.975C326.4 476.354 326.423 476.567 326.435 476.614C326.541 477.298 324.925 478.974 323.686 479.729C323.799 478.591 324.26 477.515 325.007 476.649C325.239 476.456 325.532 476.352 325.833 476.354Z" fill="#407BFF"/>
<path d="M312.051 480.165H322.034L320.134 457.061H310.151L312.051 480.165Z" fill="#B55B52"/>
<path d="M322.046 479.009H311.154C310.964 479.003 310.779 479.071 310.638 479.198C310.497 479.326 310.411 479.504 310.399 479.694L309.75 488.52C309.742 488.749 309.78 488.978 309.862 489.192C309.943 489.406 310.067 489.602 310.225 489.768C310.383 489.934 310.573 490.067 310.783 490.158C310.994 490.25 311.22 490.299 311.449 490.302C315.367 490.231 321.007 490.007 325.951 490.007C331.722 490.007 332.323 490.314 339.097 490.314C343.191 490.314 343.71 486.172 341.94 485.806C333.893 484.095 331.922 483.906 324.559 479.753C323.798 479.295 322.933 479.039 322.046 479.009Z" fill="#263238"/>
<path opacity="0.2" d="M320.122 457.073L321.113 468.979H311.131L310.151 457.073H320.122Z" fill="black"/>
<path d="M264.32 480.673C265.161 480.77 266.007 480.538 266.68 480.024C266.805 479.853 266.872 479.646 266.872 479.434C266.872 479.222 266.805 479.015 266.68 478.844C266.602 478.706 266.496 478.585 266.367 478.492C266.239 478.398 266.092 478.333 265.937 478.301C264.485 477.959 261.724 479.847 261.606 479.93C261.57 479.957 261.543 479.993 261.526 480.035C261.51 480.076 261.505 480.121 261.512 480.166C261.519 480.21 261.539 480.251 261.571 480.283C261.603 480.315 261.644 480.336 261.689 480.343C262.551 480.549 263.433 480.66 264.32 480.673ZM265.571 478.773C265.669 478.761 265.768 478.761 265.866 478.773C265.957 478.792 266.044 478.83 266.119 478.885C266.194 478.94 266.257 479.01 266.302 479.092C266.515 479.481 266.385 479.646 266.302 479.694C265.878 480.26 263.836 480.26 262.349 480.012C263.294 479.37 264.371 478.946 265.5 478.773H265.571Z" fill="#407BFF"/>
<path d="M261.748 480.401H261.854C262.892 479.835 264.886 477.652 264.674 476.543C264.639 476.368 264.545 476.21 264.407 476.096C264.27 475.983 264.097 475.919 263.919 475.917C263.739 475.895 263.557 475.911 263.385 475.964C263.212 476.017 263.052 476.106 262.916 476.224C261.736 477.168 261.512 480.047 261.512 480.165C261.507 480.209 261.514 480.253 261.533 480.293C261.552 480.332 261.581 480.366 261.618 480.39C261.659 480.406 261.704 480.41 261.748 480.401ZM263.754 476.354H263.86C264.167 476.354 264.202 476.531 264.214 476.59C264.332 477.251 263.034 478.95 262.031 479.682C262.103 478.545 262.514 477.456 263.211 476.555C263.363 476.426 263.555 476.355 263.754 476.354Z" fill="#407BFF"/>
<path d="M252.614 480.165H262.585L267.6 457.061H257.629L252.614 480.165Z" fill="#B55B52"/>
<path d="M263.293 479.009H252.095C251.896 479.008 251.703 479.075 251.548 479.2C251.393 479.324 251.286 479.499 251.246 479.694L249.275 488.52C249.227 488.736 249.228 488.96 249.279 489.175C249.33 489.39 249.429 489.591 249.569 489.763C249.708 489.934 249.885 490.072 250.086 490.165C250.286 490.259 250.505 490.305 250.726 490.302C254.644 490.231 256.544 490.007 261.476 490.007C264.509 490.007 268.391 490.314 272.58 490.314C276.769 490.314 277.3 486.172 275.601 485.806C267.919 484.119 267.341 481.806 264.922 479.587C264.468 479.202 263.889 478.996 263.293 479.009Z" fill="#263238"/>
<path d="M228.92 349.044C228.92 349.044 284.262 365.835 285.631 388.067C288.144 429.013 268.061 463.905 268.061 463.905H253.098C253.098 463.905 258.786 446.606 260.827 409.519C263.388 362.909 175.254 410.605 191.549 349.044H228.92Z" fill="black"/>
<g opacity="0.2">
<path opacity="0.2" d="M257.618 457.073H267.6L265.016 468.979H255.033L257.618 457.073Z" fill="black"/>
</g>
<path d="M244.909 349.044C244.909 349.044 316.476 353.764 319.308 391.748C322.553 435.408 323.497 463.905 323.497 463.905H308.676C308.676 463.905 301.053 437.131 294.516 398.639C292.546 387.111 268.096 385.128 244.956 383.76C225.014 382.58 209.698 381.4 208.022 359.31L208.282 349.044H244.909Z" fill="#263238"/>
<path d="M327.12 459.94C327.202 459.94 326.164 467.02 326.164 467.02H305.62L305.065 460.755L327.12 459.94Z" fill="#407BFF"/>
<path d="M272.58 459.94C272.663 459.94 270.692 467.02 270.692 467.02H250.16L250.538 460.755L272.58 459.94Z" fill="#407BFF"/>
<path d="M241.688 380.621L231.669 312.57C231.4 310.728 230.477 309.044 229.069 307.827C227.661 306.609 225.861 305.939 223.999 305.938H164.893C163.779 305.938 162.679 306.178 161.666 306.642C160.653 307.106 159.752 307.782 159.024 308.625C158.296 309.468 157.759 310.459 157.448 311.528C157.137 312.598 157.06 313.722 157.223 314.824L166.899 380.621C166.899 381.378 167.049 382.128 167.339 382.827C167.629 383.526 168.054 384.162 168.59 384.697C169.126 385.232 169.762 385.655 170.462 385.944C171.162 386.233 171.912 386.381 172.669 386.379H280.415C280.415 385.622 280.266 384.872 279.976 384.173C279.686 383.473 279.26 382.838 278.724 382.303C278.188 381.768 277.552 381.344 276.852 381.056C276.152 380.767 275.402 380.619 274.645 380.621H241.688Z" fill="#407BFF"/>
<path opacity="0.5" d="M241.688 380.621L231.669 312.57C231.4 310.728 230.477 309.044 229.069 307.827C227.661 306.609 225.861 305.939 223.999 305.938H164.893C163.779 305.938 162.679 306.178 161.666 306.642C160.653 307.106 159.752 307.782 159.024 308.625C158.296 309.468 157.759 310.459 157.448 311.528C157.137 312.598 157.06 313.722 157.223 314.824L166.899 380.621C166.899 381.378 167.049 382.128 167.339 382.827C167.629 383.526 168.054 384.162 168.59 384.697C169.126 385.232 169.762 385.655 170.462 385.944C171.162 386.233 171.912 386.381 172.669 386.379H280.415C280.415 385.622 280.266 384.872 279.976 384.173C279.686 383.473 279.26 382.838 278.724 382.303C278.188 381.768 277.552 381.344 276.852 381.056C276.152 380.767 275.402 380.619 274.645 380.621H241.688Z" fill="white"/>
<path opacity="0.3" d="M223.999 305.938H164.893C163.779 305.938 162.679 306.178 161.666 306.642C160.653 307.106 159.752 307.782 159.024 308.625C158.296 309.468 157.759 310.459 157.448 311.528C157.137 312.598 157.06 313.722 157.223 314.824L166.899 380.621C166.899 381.378 167.049 382.128 167.339 382.827C167.629 383.526 168.054 384.162 168.59 384.697C169.126 385.232 169.762 385.655 170.462 385.944C171.162 386.233 171.912 386.381 172.669 386.379H235.339L223.999 305.938Z" fill="#407BFF"/>
<path d="M167.654 491.163H164.315L172.669 386.379H176.021L167.654 491.163Z" fill="#407BFF"/>
<path opacity="0.6" d="M167.654 491.163H164.315L172.669 386.379H176.021L167.654 491.163Z" fill="white"/>
<path d="M224.471 491.163H221.132L229.498 386.379H232.838L224.471 491.163Z" fill="#407BFF"/>
<path opacity="0.6" d="M224.471 491.163H221.132L229.498 386.379H232.838L224.471 491.163Z" fill="white"/>
<path d="M229.616 491.163H226.265L217.911 386.379H221.25L229.616 491.163Z" fill="#407BFF"/>
<path opacity="0.7" d="M229.616 491.163H226.265L217.911 386.379H221.25L229.616 491.163Z" fill="white"/>
<path d="M286.433 491.163H283.094L274.728 386.379H278.067L286.433 491.163Z" fill="#407BFF"/>
<path opacity="0.7" d="M286.433 491.163H283.094L274.728 386.379H278.067L286.433 491.163Z" fill="white"/>
</svg>
