<svg width="257" height="65" viewBox="0 0 257 65" fill="none" xmlns="http://www.w3.org/2000/svg">
<path d="M29.8594 43.6016C28.2969 44.9297 26.5547 45.9531 24.6328 46.6719C22.7109 47.375 20.7109 47.7266 18.6328 47.7266C17.0391 47.7266 15.5 47.5156 14.0156 47.0938C12.5469 46.6875 11.1719 46.1094 9.89062 45.3594C8.60938 44.5938 7.4375 43.6875 6.375 42.6406C5.3125 41.5781 4.40625 40.4062 3.65625 39.125C2.90625 37.8281 2.32031 36.4375 1.89844 34.9531C1.49219 33.4688 1.28906 31.9297 1.28906 30.3359C1.28906 28.7422 1.49219 27.2109 1.89844 25.7422C2.32031 24.2734 2.90625 22.8984 3.65625 21.6172C4.40625 20.3203 5.3125 19.1484 6.375 18.1016C7.4375 17.0391 8.60938 16.1328 9.89062 15.3828C11.1719 14.6328 12.5469 14.0547 14.0156 13.6484C15.5 13.2266 17.0391 13.0156 18.6328 13.0156C20.7109 13.0156 22.7109 13.375 24.6328 14.0938C26.5547 14.7969 28.2969 15.8125 29.8594 17.1406L26.3438 23C25.3281 21.9688 24.1562 21.1641 22.8281 20.5859C21.5 19.9922 20.1016 19.6953 18.6328 19.6953C17.1641 19.6953 15.7812 19.9766 14.4844 20.5391C13.2031 21.1016 12.0781 21.8672 11.1094 22.8359C10.1406 23.7891 9.375 24.9141 8.8125 26.2109C8.25 27.4922 7.96875 28.8672 7.96875 30.3359C7.96875 31.8203 8.25 33.2109 8.8125 34.5078C9.375 35.8047 10.1406 36.9375 11.1094 37.9062C12.0781 38.875 13.2031 39.6406 14.4844 40.2031C15.7812 40.7656 17.1641 41.0469 18.6328 41.0469C19.4766 41.0469 20.2969 40.9453 21.0938 40.7422C21.8906 40.5391 22.6484 40.2578 23.3672 39.8984V30.3359H29.8594V43.6016ZM39.3647 47H32.9194V11.9141H39.3647V47ZM94.305 34.2266C94.305 36.1953 93.9691 37.9922 93.2972 39.6172C92.6253 41.2422 91.7113 42.6406 90.555 43.8125C89.3988 44.9688 88.0394 45.8672 86.4769 46.5078C84.93 47.1484 83.2659 47.4688 81.4847 47.4688C79.7191 47.4688 78.055 47.1406 76.4925 46.4844C74.9456 45.8281 73.5863 44.9141 72.4144 43.7422C71.2581 42.5703 70.3441 41.1797 69.6722 39.5703C69.0003 37.9453 68.6644 36.1641 68.6644 34.2266V11.9141H75.0863V23.6328C75.43 23.1953 75.8441 22.8047 76.3284 22.4609C76.8284 22.1172 77.3597 21.8359 77.9222 21.6172C78.5003 21.3984 79.0941 21.2344 79.7034 21.125C80.3128 21 80.9066 20.9375 81.4847 20.9375C83.2659 20.9375 84.93 21.2734 86.4769 21.9453C88.0394 22.6016 89.3988 23.5234 90.555 24.7109C91.7113 25.8984 92.6253 27.3047 93.2972 28.9297C93.9691 30.5391 94.305 32.3047 94.305 34.2266ZM87.8597 34.2266C87.8597 33.2578 87.6878 32.3594 87.3441 31.5312C87.0159 30.6875 86.5628 29.9609 85.9847 29.3516C85.4066 28.7422 84.7269 28.2656 83.9456 27.9219C83.18 27.5781 82.3597 27.4062 81.4847 27.4062C80.6097 27.4062 79.7816 27.6016 79.0003 27.9922C78.2347 28.3672 77.5628 28.875 76.9847 29.5156C76.4066 30.1406 75.9534 30.8672 75.6253 31.6953C75.2972 32.5078 75.1331 33.3516 75.1331 34.2266C75.1331 35.1953 75.2972 36.0938 75.6253 36.9219C75.9534 37.75 76.4066 38.4688 76.9847 39.0781C77.5628 39.6875 78.2347 40.1719 79.0003 40.5312C79.7816 40.875 80.6097 41.0469 81.4847 41.0469C82.3597 41.0469 83.18 40.875 83.9456 40.5312C84.7269 40.1719 85.4066 39.6875 85.9847 39.0781C86.5628 38.4688 87.0159 37.75 87.3441 36.9219C87.6878 36.0938 87.8597 35.1953 87.8597 34.2266ZM106.412 40.8594C106.662 40.9375 106.912 40.9922 107.162 41.0234C107.412 41.0391 107.662 41.0469 107.912 41.0469C108.537 41.0469 109.138 40.9609 109.717 40.7891C110.295 40.6172 110.834 40.375 111.334 40.0625C111.849 39.7344 112.302 39.3438 112.693 38.8906C113.099 38.4219 113.427 37.9062 113.677 37.3438L118.365 42.0547C117.771 42.8984 117.084 43.6562 116.302 44.3281C115.537 45 114.701 45.5703 113.795 46.0391C112.904 46.5078 111.959 46.8594 110.959 47.0938C109.974 47.3438 108.959 47.4688 107.912 47.4688C106.146 47.4688 104.482 47.1406 102.92 46.4844C101.373 45.8281 100.013 44.9141 98.8416 43.7422C97.6853 42.5703 96.7712 41.1797 96.0994 39.5703C95.4275 37.9453 95.0916 36.1641 95.0916 34.2266C95.0916 32.2422 95.4275 30.4297 96.0994 28.7891C96.7712 27.1484 97.6853 25.75 98.8416 24.5938C100.013 23.4375 101.373 22.5391 102.92 21.8984C104.482 21.2578 106.146 20.9375 107.912 20.9375C108.959 20.9375 109.982 21.0625 110.982 21.3125C111.982 21.5625 112.927 21.9219 113.818 22.3906C114.724 22.8594 115.568 23.4375 116.349 24.125C117.131 24.7969 117.818 25.5547 118.412 26.3984L106.412 40.8594ZM109.693 27.6641C109.396 27.5547 109.099 27.4844 108.802 27.4531C108.521 27.4219 108.224 27.4062 107.912 27.4062C107.037 27.4062 106.209 27.5703 105.427 27.8984C104.662 28.2109 103.99 28.6641 103.412 29.2578C102.849 29.8516 102.404 30.5703 102.076 31.4141C101.748 32.2422 101.584 33.1797 101.584 34.2266C101.584 34.4609 101.592 34.7266 101.607 35.0234C101.638 35.3203 101.677 35.625 101.724 35.9375C101.787 36.2344 101.857 36.5234 101.935 36.8047C102.013 37.0859 102.115 37.3359 102.24 37.5547L109.693 27.6641ZM143.081 47H135.253L130.261 39.3125L125.222 47H117.394L126.558 34.1328L117.394 21.7578H125.222L130.261 28.9531L135.253 21.7578H143.081L133.894 34.1328L143.081 47Z" fill="#333333"/>
<path d="M67.0809 34.2266C67.0809 36.1016 66.745 37.8516 66.0731 39.4766C65.4012 41.0859 64.4872 42.4844 63.3309 43.6719C62.1747 44.8438 60.8153 45.7734 59.2528 46.4609C57.7059 47.1328 56.0419 47.4688 54.2606 47.4688C52.495 47.4688 50.8309 47.1328 49.2684 46.4609C47.7216 45.7734 46.3622 44.8438 45.1903 43.6719C44.0341 42.4844 43.12 41.0859 42.4481 39.4766C41.7762 37.8516 41.4403 36.1016 41.4403 34.2266C41.4403 32.3203 41.7762 30.5547 42.4481 28.9297C43.12 27.3047 44.0341 25.9062 45.1903 24.7344C46.3622 23.5469 47.7216 22.6172 49.2684 21.9453C50.8309 21.2734 52.495 20.9375 54.2606 20.9375C56.0419 20.9375 57.7059 21.2578 59.2528 21.8984C60.8153 22.5234 62.1747 23.4219 63.3309 24.5938C64.4872 25.75 65.4012 27.1484 66.0731 28.7891C66.745 30.4141 67.0809 32.2266 67.0809 34.2266ZM60.6356 34.2266C60.6356 33.1953 60.4637 32.2656 60.12 31.4375C59.7919 30.5938 59.3387 29.875 58.7606 29.2812C58.1825 28.6719 57.5028 28.2109 56.7216 27.8984C55.9559 27.5703 55.1356 27.4062 54.2606 27.4062C53.3856 27.4062 52.5575 27.5703 51.7762 27.8984C51.0106 28.2109 50.3387 28.6719 49.7606 29.2812C49.1981 29.875 48.7528 30.5938 48.4247 31.4375C48.0966 32.2656 47.9325 33.1953 47.9325 34.2266C47.9325 35.1953 48.0966 36.0938 48.4247 36.9219C48.7528 37.75 49.1981 38.4688 49.7606 39.0781C50.3387 39.6875 51.0106 40.1719 51.7762 40.5312C52.5575 40.875 53.3856 41.0469 54.2606 41.0469C55.1356 41.0469 55.9559 40.8828 56.7216 40.5547C57.5028 40.2266 58.1825 39.7656 58.7606 39.1719C59.3387 38.5781 59.7919 37.8594 60.12 37.0156C60.4637 36.1719 60.6356 35.2422 60.6356 34.2266Z" fill="#0D8BFC"/>
<path d="M145.912 22.441C145.912 22.1403 146.015 21.8873 146.22 21.682C146.425 21.4767 146.682 21.374 146.99 21.374C147.305 21.374 147.558 21.4767 147.749 21.682C147.947 21.8873 148.046 22.1403 148.046 22.441C148.046 22.7417 147.947 22.9947 147.749 23.2C147.558 23.4053 147.305 23.508 146.99 23.508C146.682 23.508 146.425 23.4053 146.22 23.2C146.015 22.9947 145.912 22.7417 145.912 22.441ZM145.912 27.1257C145.912 26.495 146.04 25.9267 146.297 25.4207C146.561 24.922 146.924 24.5297 147.386 24.2437C147.848 23.965 148.372 23.8257 148.959 23.8257C149.546 23.8257 150.07 23.965 150.532 24.2437C150.994 24.5297 151.353 24.922 151.61 25.4207C151.874 25.9267 152.006 26.495 152.006 27.1257C152.006 27.749 151.874 28.2917 151.61 28.7537C151.353 29.223 150.983 29.564 150.499 29.7767L149.784 28.4457C150.327 28.1377 150.598 27.694 150.598 27.1147C150.598 26.6674 150.451 26.297 150.158 26.0037C149.865 25.7104 149.465 25.5637 148.959 25.5637C148.453 25.5637 148.053 25.7104 147.76 26.0037C147.467 26.297 147.32 26.6674 147.32 27.1147C147.32 27.7014 147.591 28.145 148.134 28.4457L147.408 29.7767C146.939 29.564 146.572 29.223 146.308 28.7537C146.044 28.2917 145.912 27.749 145.912 27.1257ZM145.912 33.1755C145.912 32.5522 146.04 31.9912 146.297 31.4925C146.561 31.0012 146.924 30.6162 147.386 30.3375C147.848 30.0589 148.372 29.9195 148.959 29.9195C149.546 29.9195 150.07 30.0589 150.532 30.3375C150.994 30.6162 151.353 31.0012 151.61 31.4925C151.874 31.9912 152.006 32.5522 152.006 33.1755C152.006 33.7989 151.874 34.3562 151.61 34.8475C151.353 35.3389 150.994 35.7239 150.532 36.0025C150.07 36.2812 149.546 36.4205 148.959 36.4205C148.372 36.4205 147.848 36.2812 147.386 36.0025C146.924 35.7239 146.561 35.3389 146.297 34.8475C146.04 34.3562 145.912 33.7989 145.912 33.1755ZM147.32 33.1755C147.32 33.6155 147.467 33.9749 147.76 34.2535C148.061 34.5395 148.46 34.6825 148.959 34.6825C149.458 34.6825 149.854 34.5395 150.147 34.2535C150.448 33.9749 150.598 33.6155 150.598 33.1755C150.598 32.7355 150.448 32.3725 150.147 32.0865C149.854 31.8005 149.458 31.6575 148.959 31.6575C148.46 31.6575 148.061 31.8005 147.76 32.0865C147.467 32.3725 147.32 32.7355 147.32 33.1755ZM152.006 44.8165C152.006 45.5572 151.786 46.1439 151.346 46.5765C150.913 47.0165 150.261 47.2365 149.388 47.2365H146V45.5205H149.124C149.593 45.5205 149.942 45.4215 150.169 45.2235C150.404 45.0329 150.521 44.7579 150.521 44.3985C150.521 43.9952 150.389 43.6762 150.125 43.4415C149.868 43.2069 149.483 43.0895 148.97 43.0895H146V41.3735H149.124C150.055 41.3735 150.521 40.9995 150.521 40.2515C150.521 39.8555 150.389 39.5402 150.125 39.3055C149.868 39.0709 149.483 38.9535 148.97 38.9535H146V37.2375H151.918V38.8765H151.236C151.485 39.0965 151.676 39.3642 151.808 39.6795C151.94 40.0022 152.006 40.3542 152.006 40.7355C152.006 41.1535 151.922 41.5312 151.753 41.8685C151.592 42.2059 151.353 42.4772 151.038 42.6825C151.346 42.9245 151.584 43.2289 151.753 43.5955C151.922 43.9695 152.006 44.3765 152.006 44.8165Z" fill="#0D8BFC"/>
</svg>
